PathFileType	4	(X/Y/Z)	D:\TRACE\spotREDO_2-26-24\spot_Both_Motion_1_9-v60.trc
DataRate	CameraRate	NumFrames	NumMarkers	Units	OrigDataRate	OrigDataStartFrame	OrigNumFrames
100.00	100.00	      20	9	mm	100.00	4376	      7000
Frame#	Time	front left toe			Front right toe			aft left toe			aft right toe			Arm			FL body			FR body			AL Body			AR Body			
		X1	Y1	Z1	X2	Y2	Z2	X3	Y3	Z3	X4	Y4	Z4	X5	Y5	Z5	X6	Y6	Z6	X7	Y7	Z7	X8	Y8	Z8	X9	Y9	Z9	

4376	43.750	-286.46649	40.79422	-481.83020	121.59715	28.63141	-411.80460	-307.97635	16.07750	158.30518	120.80772	16.58137	180.99052	-62.60542	714.09808	-792.30273	-89.88166	581.64417	-509.81793	64.99390	586.85095	-498.70190	-157.68922	556.66943	371.56973	-17.88258	562.55450	383.44299	
4377	43.760	-287.13730	41.13829	-481.79486	120.78204	28.64230	-411.62128	-308.90839	16.15445	158.33263	119.91871	16.38883	181.10242	-63.14977	714.26904	-792.13702	-89.86273	582.04724	-508.92734	65.01293	587.20514	-497.94818	-157.87376	556.54919	372.26447	-18.43482	562.30792	384.09933	
4378	43.770	-287.94785	41.48815	-481.76013	120.30115	28.76352	-411.42001	-309.46478	16.12669	158.21404	119.26484	16.37372	180.94676	-63.76960	714.34235	-791.93475	-89.91557	582.55804	-508.01474	64.65887	587.73743	-497.10257	-158.09190	556.41412	372.96381	-18.26048	562.13239	385.10687	
4379	43.780	-288.77005	41.76892	-481.81573	119.55253	28.97709	-411.40408	-309.88797	15.72706	158.67467	118.33101	15.97625	180.92868	-64.41187	714.52264	-791.76703	-89.92950	583.29828	-507.32236	64.76427	588.24823	-496.08960	-158.45898	556.32135	373.87589	-18.21673	561.95062	385.97867	
4380	43.790	-288.84390	44.04737	-481.24954	118.37102	28.86086	-411.34320	-310.93222	15.93446	158.86966	118.12795	16.32512	181.60469	-65.07566	714.61847	-791.72382	-90.21130	583.73315	-506.53860	64.59116	588.86670	-495.32242	-158.42439	556.18286	374.76514	-18.89197	561.91333	386.72900	
4381	43.800	-288.37335	56.15256	-477.32877	118.53596	28.52552	-410.99704	-311.58008	15.87272	158.66882	117.32952	15.76639	181.56996	-65.72672	714.73920	-791.70587	-90.08836	583.67688	-505.51944	64.55692	589.26050	-494.70734	-159.21947	555.47760	375.15521	-19.44752	561.36090	387.45728	
4382	43.810	-286.76099	71.13418	-471.61026	118.02773	28.21366	-410.82806	-311.80948	15.76499	158.64273	116.57423	15.83903	181.75859	-65.76826	714.82104	-791.65594	-89.91030	583.78101	-505.25729	64.92201	589.69513	-493.88995	-160.08359	555.13568	375.60751	-20.19584	561.47876	388.07141	
4383	43.820	-287.23560	86.67480	-469.64523	117.44971	28.39405	-410.75497	-312.30957	15.62203	158.92575	115.85088	16.04587	181.74384	-66.01218	715.07294	-791.34515	-89.95068	583.81317	-504.79395	64.75085	589.95398	-493.23444	-160.60271	554.95795	376.06198	-20.48990	561.40411	388.45172	
4384	43.830	-289.09320	102.35386	-472.70123	116.84639	28.59451	-410.65686	-313.37335	15.58601	158.90816	115.48242	15.95855	181.90218	-67.04342	715.16968	-790.78223	-90.46446	584.04187	-504.30145	64.06142	590.50055	-492.75214	-160.84564	554.59045	376.69269	-20.75621	561.29437	389.07178	
4385	43.840	-288.60513	118.20128	-477.86758	116.10297	29.13736	-410.41302	-313.91357	15.65187	159.03857	114.73811	15.65518	181.96751	-68.06818	714.77856	-790.67474	-91.52441	584.59100	-503.24435	63.26384	590.95935	-492.15591	-161.18579	554.41266	377.37997	-20.82723	560.96490	389.77695	
4386	43.850	-287.43777	134.06923	-481.84717	114.97031	29.20539	-410.63330	-314.34637	15.68188	159.30371	114.32190	15.47197	182.10995	-68.82532	714.72571	-790.74994	-92.08462	585.38031	-502.96802	62.44845	591.46631	-491.59882	-161.58127	554.04034	378.04562	-20.85952	560.63104	390.45975	
4387	43.860	-285.16190	147.18694	-481.68741	114.43672	29.55393	-410.50357	-315.06708	15.59481	159.49548	113.66319	15.27543	182.20024	-69.95685	714.79871	-790.56213	-93.41911	586.23724	-502.35062	61.35987	592.31116	-491.10309	-161.92000	553.65656	378.51031	-21.51001	560.16522	390.89108	
4388	43.870	-283.65903	158.91463	-479.08914	113.90283	29.92372	-410.58029	-315.58847	15.42301	159.51904	113.00210	15.12561	182.25667	-70.42866	715.06262	-790.23767	-94.04202	586.67566	-501.90195	60.48251	592.97815	-490.73917	-162.61925	553.24158	378.99902	-22.14250	559.47601	391.13666	
4389	43.880	-283.88400	170.56006	-475.48825	113.64348	30.29675	-410.41498	-316.20215	15.36977	159.72337	112.14342	15.04010	182.10889	-70.96377	715.35400	-790.17218	-95.38644	587.05975	-501.45059	59.38310	593.49646	-490.31396	-163.65633	553.15668	379.43646	-23.01489	560.00336	391.74390	
4390	43.890	-283.83786	182.05287	-473.82800	112.92925	30.29346	-410.20111	-316.65494	15.43144	159.86696	111.61930	15.03467	182.08064	-71.48802	715.55872	-789.90192	-96.29826	587.26025	-501.00574	58.20395	593.91785	-489.94775	-164.20070	552.90283	379.89169	-23.94097	560.01099	392.07428	
4391	43.900	-283.53845	193.41844	-474.07474	112.14844	30.42372	-410.20895	-317.31693	15.46467	160.01096	111.31569	15.13804	182.39560	-71.82048	715.60376	-789.90460	-97.92001	587.59320	-500.67746	56.90195	594.23889	-489.63779	-165.34288	552.66089	380.24738	-24.78964	559.76221	392.30655	
4392	43.910	-282.43600	203.68309	-475.00424	111.47860	30.72235	-410.23114	-317.90634	15.24942	160.09793	110.86579	15.17302	182.51608	-72.22031	715.63013	-790.43408	-99.25432	587.79010	-500.41681	55.27464	594.55603	-489.43893	-166.37886	552.78436	380.73087	-25.90041	559.54376	392.65198	
4393	43.920	-281.31100	212.07634	-475.88184	111.03165	31.31324	-410.22769	-318.39392	15.09914	160.00352	110.15236	15.04520	182.35854	-72.49183	715.91492	-790.11670	-101.15253	587.88892	-500.02963	53.94061	594.58228	-489.21060	-167.22934	552.66681	380.95746	-26.84425	559.60138	392.99060	
4394	43.930	-278.84384	214.32472	-475.74588	110.50105	31.49597	-410.36441	-318.94962	14.83556	160.00142	109.56150	15.04102	182.41660	-72.62906	716.72961	-790.20746	-102.29311	587.69165	-499.93744	52.05311	594.67871	-489.05737	-168.69638	552.80878	381.32230	-27.85292	559.54901	392.84772	
4395	43.940	-277.04559	214.46158	-473.80612	109.94182	31.56445	-410.34457	-319.75452	14.99885	159.98734	108.98199	15.08312	182.42877	-72.40550	718.83929	-790.32123	-104.29977	587.40222	-499.84232	50.47015	594.52521	-489.10999	-169.99373	552.75006	381.25854	-29.37860	560.26312	393.23602	
